<svg xmlns="http://www.w3.org/2000/svg" viewBox="0 0 1280 720" width="1280" height="720">
	<style>
		tspan { white-space:pre }
		.shp0 { fill: #000000 } 
	</style>
	<path id="gRENTy " class="shp0" d="M322.23 333.76C323.49 329.61 325.28 326.05 327.6 323.08C329.92 320.11 332.73 317.81 336.02 316.18C339.32 314.55 343.04 313.74 347.19 313.74C349.43 313.74 351.46 313.96 353.29 314.41C355.17 314.82 356.86 315.45 358.36 316.3C359.5 316.91 360.56 317.65 361.53 318.5C362.51 319.31 363.41 320.23 364.22 321.25L364.89 314.96L380.33 314.96L380.33 378.86C380.33 383.34 379.56 387.33 378.01 390.83C376.51 394.33 374.39 397.28 371.67 399.68C368.9 402.08 365.58 403.91 361.72 405.17C357.89 406.39 353.66 407 349.02 407C347.03 407 344.89 406.8 342.61 406.39C340.34 405.98 338.08 405.35 335.84 404.5C333.6 403.64 331.49 402.57 329.49 401.26C327.5 399.92 325.79 398.33 324.36 396.5L331.99 386.19C333.09 387.45 334.27 388.57 335.53 389.54C336.8 390.48 338.12 391.25 339.5 391.86C340.84 392.47 342.23 392.94 343.65 393.27C345.12 393.55 346.62 393.7 348.17 393.7C350.65 393.7 352.85 393.35 354.76 392.66C356.71 391.97 358.34 390.95 359.64 389.61C360.82 388.39 361.72 386.88 362.33 385.09C362.98 383.3 363.3 381.28 363.3 379.05L363.3 375.26C362.49 376.16 361.64 376.97 360.74 377.7C359.85 378.44 358.89 379.09 357.87 379.66C356.37 380.47 354.7 381.1 352.87 381.55C351.08 382 349.14 382.22 347.07 382.22C342.96 382.22 339.26 381.39 335.96 379.72C332.71 378.01 329.92 375.67 327.6 372.7C325.28 369.73 323.49 366.21 322.23 362.14C321.01 358.03 320.4 353.57 320.4 348.77L320.4 347.49C320.4 342.49 321.01 337.91 322.23 333.76ZM338.22 356.52C338.79 358.88 339.64 360.94 340.78 362.69C341.92 364.48 343.37 365.88 345.12 366.9C346.87 367.92 348.94 368.43 351.34 368.43C352.81 368.43 354.13 368.28 355.31 368C356.53 367.71 357.63 367.31 358.6 366.78C359.62 366.21 360.52 365.52 361.29 364.7C362.06 363.89 362.74 362.97 363.3 361.96L363.3 334C362.69 332.86 361.96 331.87 361.11 331.01C360.25 330.16 359.28 329.47 358.18 328.94C357.24 328.49 356.2 328.14 355.06 327.9C353.97 327.66 352.77 327.53 351.46 327.53C349.06 327.53 346.99 328.06 345.24 329.12C343.49 330.14 342.04 331.54 340.9 333.33C339.72 335.16 338.85 337.3 338.28 339.74C337.71 342.14 337.43 344.72 337.43 347.49L337.43 348.77C337.43 351.54 337.69 354.12 338.22 356.52ZM418.69 381L398.11 381L398.11 274.36L433.85 274.36C439.76 274.36 445.1 275.07 449.89 276.48C454.67 277.85 458.78 279.88 462.19 282.56C465.56 285.25 468.15 288.59 469.96 292.6C471.81 296.6 472.74 301.24 472.74 306.51C472.74 310.32 472.28 313.76 471.35 316.84C470.47 319.87 469.2 322.58 467.54 324.97C465.83 327.41 463.78 329.54 461.39 331.34C459.04 333.15 456.41 334.71 453.48 336.03L476.4 380.05L476.4 381L454.36 381L434.29 341.16L418.69 341.16L418.69 381ZM442.27 323.14C444.71 322.21 446.69 320.89 448.2 319.18C449.47 317.82 450.43 316.18 451.06 314.28C451.74 312.37 452.09 310.25 452.09 307.9C452.09 305.07 451.65 302.58 450.77 300.43C449.94 298.24 448.67 296.43 446.96 295.01C445.45 293.74 443.59 292.77 441.39 292.08C439.2 291.4 436.68 291.06 433.85 291.06L418.69 291.06L418.69 324.46L433.92 324.46C437.1 324.46 439.88 324.02 442.27 323.14ZM388.51 395.65L478.53 395.65L478.53 402.97L388.51 402.97L388.51 395.65ZM509.95 364.37L561.14 364.37L561.14 381L489.29 381L489.29 274.36L560.92 274.36L560.92 291.13L509.95 291.13L509.95 318.01L553.75 318.01L553.75 334.27L509.95 334.27L509.95 364.37ZM483.03 402.97L483.03 395.65L568.54 395.65L568.54 402.97L483.03 402.97ZM598.28 312.23L598.28 381L577.55 381L577.55 274.36L598.28 274.36L627.72 342.84L627.79 274.36L648.45 274.36L648.45 381L627.94 381L598.28 312.23ZM573.04 402.97L573.04 395.65L658.56 395.65L658.56 402.97L573.04 402.97ZM713.63 381L692.98 381L692.98 291.13L660.53 291.13L660.53 274.36L746.52 274.36L746.52 291.13L713.63 291.13L713.63 381ZM663.06 402.97L663.06 395.65L753.07 395.65L753.07 402.97L663.06 402.97ZM763.34 407.37C762.16 407.16 760.84 406.86 759.37 406.45L761.45 393.51C762.14 393.51 763.02 393.55 764.07 393.63C765.17 393.67 766.05 393.7 766.7 393.7C768.04 393.7 769.22 393.29 770.24 392.47C771.3 391.62 772.19 390.7 772.92 389.73C773.66 388.75 774.19 388.02 774.51 387.53C774.88 387.04 775.3 386.35 775.79 385.46L779.7 378.19L751.74 314.96L770.3 314.96L785.44 353.66L787.27 360.37L789.77 353.78L804.85 314.96L823.58 314.96L790.07 390.89C789.34 392.56 788.39 394.37 787.21 396.32C786.07 398.27 784.62 400.08 782.87 401.75C781.12 403.42 778.99 404.82 776.46 405.96C773.98 407.1 771.03 407.67 767.61 407.67C765.99 407.67 764.56 407.57 763.34 407.37Z" />
</svg>